<svg width="20" height="20" viewBox="0 0 20 20" fill="none" xmlns="http://www.w3.org/2000/svg">
<path d="M5 8.33268V6.66602C5 3.90768 5.83333 1.66602 10 1.66602C14.1667 1.66602 15 3.90768 15 6.66602V8.33268" stroke="#1A1C1E" stroke-width="1.5" stroke-linecap="round" stroke-linejoin="round"/>
<path d="M10.0003 15.4167C11.1509 15.4167 12.0837 14.4839 12.0837 13.3333C12.0837 12.1827 11.1509 11.25 10.0003 11.25C8.84973 11.25 7.91699 12.1827 7.91699 13.3333C7.91699 14.4839 8.84973 15.4167 10.0003 15.4167Z" stroke="#1A1C1E" stroke-width="1.5" stroke-linecap="round" stroke-linejoin="round"/>
<path d="M14.167 18.334H5.83366C2.50033 18.334 1.66699 17.5007 1.66699 14.1673V12.5007C1.66699 9.16732 2.50033 8.33398 5.83366 8.33398H14.167C17.5003 8.33398 18.3337 9.16732 18.3337 12.5007V14.1673C18.3337 17.5007 17.5003 18.334 14.167 18.334Z" stroke="#1A1C1E" stroke-width="1.5" stroke-linecap="round" stroke-linejoin="round"/>
</svg>
