<svg width="24" height="24" viewBox="0 0 24 24" fill="none" xmlns="http://www.w3.org/2000/svg">
<path d="M5.17201 17.2353L5.17203 17.2353L5.17015 17.2315C4.68176 16.2265 4.40044 15.091 4.40045 13.9L4.40044 13.8982C4.39104 11.3041 5.70622 8.85429 7.31144 6.8404C8.90983 4.83508 10.7483 3.32143 11.6828 2.6082C11.8768 2.46189 12.1267 2.46715 12.3035 2.60468L12.3035 2.6047L12.3083 2.60835C13.1577 3.25274 14.7589 4.5984 16.2595 6.36382C16.4337 6.56878 16.4196 6.87379 16.2369 7.05645L5.95689 17.3364C5.69924 17.5941 5.30061 17.5058 5.17201 17.2353Z" fill="#1C2634" stroke="#1C2634"/>
<path d="M20.1 13.9103C20.1 18.3703 16.47 22.0003 12 22.0003C10.21 22.0003 8.53996 21.4203 7.18996 20.4203C6.69996 20.0603 6.65996 19.3403 7.08996 18.9103L17.16 8.84026C17.63 8.37026 18.42 8.47026 18.74 9.05026C19.56 10.5603 20.11 12.2003 20.1 13.9103Z" fill="#1C2634"/>
</svg>
