<svg width="44" height="43" viewBox="0 0 44 43" fill="none" xmlns="http://www.w3.org/2000/svg">
<path d="M22 0.25C10.2912 0.25 0.75 9.79125 0.75 21.5C0.75 33.2088 10.2912 42.75 22 42.75C33.7088 42.75 43.25 33.2088 43.25 21.5C43.25 9.79125 33.7088 0.25 22 0.25ZM32.1575 16.6125L20.1087 28.6612C19.8112 28.9587 19.4075 29.1288 18.9825 29.1288C18.5575 29.1288 18.1538 28.9587 17.8563 28.6612L11.8425 22.6475C11.2262 22.0312 11.2262 21.0112 11.8425 20.395C12.4587 19.7787 13.4787 19.7787 14.095 20.395L18.9825 25.2825L29.905 14.36C30.5213 13.7438 31.5413 13.7438 32.1575 14.36C32.7738 14.9763 32.7738 15.975 32.1575 16.6125Z" fill="white"/>
</svg>
