<svg width="20" height="20" viewBox="0 0 20 20" fill="none" xmlns="http://www.w3.org/2000/svg">
<path d="M17.5584 4.35866C16.2167 4.22533 14.875 4.12533 13.525 4.05033V4.04199L13.3417 2.95866C13.2167 2.19199 13.0334 1.04199 11.0834 1.04199H8.90005C6.95838 1.04199 6.77505 2.14199 6.64172 2.95033L6.46672 4.01699C5.69172 4.06699 4.91672 4.11699 4.14172 4.19199L2.44172 4.35866C2.09172 4.39199 1.84172 4.70033 1.87505 5.04199C1.90838 5.38366 2.20838 5.63366 2.55838 5.60033L4.25838 5.43366C8.62505 5.00033 13.0251 5.16699 17.4417 5.60866C17.4667 5.60866 17.4834 5.60866 17.5084 5.60866C17.8251 5.60866 18.1 5.36699 18.1334 5.04199C18.1584 4.70033 17.9084 4.39199 17.5584 4.35866Z" fill="var(--gray-light-color)"/>
<path d="M16.0254 6.78301C15.8254 6.57467 15.5504 6.45801 15.2671 6.45801H4.73378C4.45044 6.45801 4.16711 6.57467 3.97544 6.78301C3.78378 6.99134 3.67544 7.27467 3.69211 7.56634L4.20878 16.1163C4.30044 17.383 4.41711 18.9663 7.32544 18.9663H12.6754C15.5838 18.9663 15.7004 17.3913 15.7921 16.1163L16.3088 7.57467C16.3254 7.27467 16.2171 6.99134 16.0254 6.78301ZM11.3838 14.7913H8.60878C8.26711 14.7913 7.98378 14.508 7.98378 14.1663C7.98378 13.8247 8.26711 13.5413 8.60878 13.5413H11.3838C11.7254 13.5413 12.0088 13.8247 12.0088 14.1663C12.0088 14.508 11.7254 14.7913 11.3838 14.7913ZM12.0838 11.458H7.91711C7.57544 11.458 7.29211 11.1747 7.29211 10.833C7.29211 10.4913 7.57544 10.208 7.91711 10.208H12.0838C12.4254 10.208 12.7088 10.4913 12.7088 10.833C12.7088 11.1747 12.4254 11.458 12.0838 11.458Z" fill="var(--gray-light-color)"/>
</svg>
