<svg width="31" height="31" viewBox="0 0 31 31" fill="none" xmlns="http://www.w3.org/2000/svg">
<path opacity="0.5" d="M19.7278 24.1902C18.009 24.1905 16.3287 23.6811 14.8995 22.7264C13.4702 21.7717 12.3561 20.4146 11.6981 18.8267C11.0402 17.2389 10.8678 15.4916 11.2029 13.8058C11.5379 12.12 12.3654 10.5714 13.5806 9.35583C14.7957 8.14028 16.3441 7.31238 18.0298 6.97681C19.7155 6.64124 21.4629 6.81308 23.0509 7.47059C24.639 8.12811 25.9964 9.24177 26.9515 10.6707C27.9066 12.0997 28.4165 13.7798 28.4168 15.4986V15.4999C28.4144 17.8038 27.4982 20.0126 25.8693 21.6418C24.2403 23.271 22.0316 24.1875 19.7278 24.1902Z" fill="#EDF1F3"/>
<path d="M11.2724 24.1902C9.55358 24.1902 7.8734 23.6806 6.44428 22.7257C5.01516 21.7707 3.9013 20.4135 3.24355 18.8256C2.5858 17.2376 2.4137 15.4903 2.74902 13.8045C3.08434 12.1187 3.91201 10.5703 5.12737 9.35491C6.34274 8.13955 7.89121 7.31187 9.57697 6.97656C11.2627 6.64124 13.0101 6.81334 14.598 7.47109C16.186 8.12884 17.5432 9.2427 18.4981 10.6718C19.453 12.1009 19.9627 13.7811 19.9627 15.4999C19.9603 17.804 19.044 20.013 17.4147 21.6423C15.7855 23.2715 13.5765 24.1878 11.2724 24.1902Z" fill="#EDF1F3"/>
</svg>
